Input #0, mov,mp4,m4a,3gp,3g2,mj2, from '/home/hbattu/projects/huberman-gpt/huberman-audio/mp3/tmpx7ijrq8s.mp4':
  Metadata:
    major_brand     : dash
    minor_version   : 0
    compatible_brands: iso6mp41
    creation_time   : 2022-12-10T18:07:41.000000Z
  Duration: 03:49:34.31, start: 0.000000, bitrate: 129 kb/s
    Stream #0:0(eng): Audio: aac (LC) (mp4a / 0x6134706D), 44100 Hz, stereo, fltp, 0 kb/s (default)
    Metadata:
      creation_time   : 2022-12-10T18:07:41.000000Z
      handler_name    : ISO Media file produced by Google Inc.
Stream mapping:
  Stream #0:0 -> #0:0 (aac (native) -> mp3 (libmp3lame))
Press [q] to stop, [?] for help
[graph_0_in_0_0 @ 0x558bbfdc9ec0] tb:1/44100 samplefmt:fltp samplerate:44100 chlayout:0x3
Output #0, mp3, to '../huberman-audio/mp3/K4Ze-Sp6aUE.mp3':
  Metadata:
    major_brand     : dash
    minor_version   : 0
    compatible_brands: iso6mp41
    TSSE            : Lavf58.29.100
    Stream #0:0(eng): Audio: mp3 (libmp3lame), 44100 Hz, stereo, fltp, delay 1105 (default)
    Metadata:
      creation_time   : 2022-12-10T18:07:41.000000Z
      handler_name    : ISO Media file produced by Google Inc.
      encoder         : Lavc58.54.100 libmp3lame
No more output streams to write to, finishing.
size=  215224kB time=03:49:34.31 bitrate= 128.0kbits/s speed=90.4x    
[AVIOContext @ 0x558bbfd7f900] Statistics: 0 seeks, 305 writeouts
video:0kB audio:215224kB subtitle:0kB other streams:0kB global headers:0kB muxing overhead: 0.000157%
Input file #0 (/home/hbattu/projects/huberman-gpt/huberman-audio/mp3/tmpx7ijrq8s.mp4):
  Input stream #0:0 (audio): 593210 packets read (220388948 bytes); 593210 frames decoded (607447040 samples); 
  Total: 593210 packets (220388948 bytes) demuxed
Output file #0 (../huberman-audio/mp3/K4Ze-Sp6aUE.mp3):
  Output stream #0:0 (audio): 527298 frames encoded (607447040 samples); 527299 packets muxed (220389459 bytes); 
  Total: 527299 packets (220389459 bytes) muxed
[AVIOContext @ 0x558bbfdb9cc0] Statistics: 2 seeks, 842 writeouts
[AVIOContext @ 0x558bbfd88880] Statistics: 222922532 bytes read, 0 seeks
